PathFileType	4	(X/Y/Z)	/Users/visionmauri/1_9_1_f_Sports2D/1_9_1_f_Sports2D_m_person00.trc
DataRate	CameraRate	NumFrames	NumMarkers	Units	OrigDataRate	OrigDataStartFrame	OrigNumFrames
30.0	30.0	6	22	m	30.0	261	349
Frame#	Time	Hip			RHip			RKnee			RAnkle			RBigToe			RSmallToe			RHeel			LHip			LKnee			LAnkle			LBigToe			LSmallToe			LHeel			Neck			Head			Nose			RShoulder			RElbow			RWrist			LShoulder			LElbow			LWrist			
		X1	Y1	Z1	X2	Y2	Z2	X3	Y3	Z3	X4	Y4	Z4	X5	Y5	Z5	X6	Y6	Z6	X7	Y7	Z7	X8	Y8	Z8	X9	Y9	Z9	X10	Y10	Z10	X11	Y11	Z11	X12	Y12	Z12	X13	Y13	Z13	X14	Y14	Z14	X15	Y15	Z15	X16	Y16	Z16	X17	Y17	Z17	X18	Y18	Z18	X19	Y19	Z19	X20	Y20	Z20	X21	Y21	Z21	X22	Y22	Z22
261	8.725	0.6985249592217665	0.6279907414014244	0.0301	0.6450890510188777	0.5569284913128679	0.0301	0.9149617728889147	0.2949723523357149	0.129	1.185119688280448	0.05108658990982617	0.023	1.2672298170663545	-0.02471053459526665	0.2179	1.2256957751334794	-0.05809874719489551	0.1804	1.2329429508957321	0.019760915262944385	-0.0119	0.7666753627089695	0.6903938207751112	0.0301	0.9977628035919405	0.46346370876828813	0.129	1.3105884734538569	0.15622087110636385	0.023	1.3938630934178033	0.10560615590259084	0.2179	1.4303288063023705	0.13500428301306222	0.1804	1.3587861489930817	0.08979281830979953	-0.0119	0.37420391679498377	1.0018714291968238	0.0008	0.24402463157382265	1.2045295161592873	0.0655	0.3716027089529966	1.0511783796803258	0.1076	0.2621879841737609	0.854268141578312	-0.01275	0.3342414851595969	0.6167377477363508	0.0702	0.4605595249859467	0.4529040274308783	0.1076	0.5204032030681983	1.0963078318543746	-0.01275	0.7228498419035199	0.9733126813460125	0.0702	0.7633451492991393	0.963713710868847	0.1076
262	8.758429118773947	0.7010616972793146	0.6276572989961194	0.0301	0.6480691381904535	0.5549775848120174	0.0301	0.9149356671343521	0.29488819416145406	0.129	1.1843289107238206	0.05107687695078066	0.023	1.2683547595318492	-0.02472816567059055	0.2179	1.2261559297489888	-0.057793017157643144	0.1804	1.2316699058470697	0.021299362777541866	-0.0119	0.770937219086896	0.6878454464227214	0.0301	1.0002941271499306	0.45928922922694987	0.129	1.3103764982005497	0.1494425245242793	0.023	1.3943314220824417	0.09616810733400341	0.2179	1.430093978708378	0.12451074748177776	0.1804	1.3542642090275978	0.08459560141753734	-0.0119	0.3752184712730079	1.0031645696867313	0.0008	0.24602040849179233	1.2056622172543336	0.0655	0.3756272652069183	1.0534881385452386	0.1076	0.26343109886984734	0.8533800891515683	-0.01275	0.33819586660023043	0.6130835686783862	0.0702	0.46151391606742337	0.4524601417319417	0.1076	0.5228251250995721	1.098677583813651	-0.01275	0.7235004627360698	0.9769383755717351	0.0702	0.7615309993327015	0.9667016527139821	0.1076
263	8.791858237547892	0.705604951814965	0.6269398933275188	0.0301	0.6527091486937839	0.5520079288792703	0.0301	0.9164476905687556	0.2934963280440097	0.129	1.1840416679915917	0.052196836263377344	0.023	1.2696485191366669	-0.02600578558403749	0.2179	1.2262465698447118	-0.057845358812384444	0.1804	1.2296714284432437	0.02486472322388457	-0.0119	0.7770780693606655	0.6861137436902868	0.0301	1.005126552195019	0.4523847123378823	0.129	1.3076414884633407	0.14123310848213655	0.023	1.3943056670041218	0.07796203504859874	0.2179	1.4290706729925386	0.10937545164728443	0.1804	1.347231052355014	0.0748547340680892	-0.0119	0.3760015939125751	1.0043157450576006	0.0008	0.24780298634739462	1.2083903181639957	0.0655	0.3780731238044494	1.0561960826938461	0.1076	0.26503178397554883	0.8527615545731959	-0.01275	0.3422290148590355	0.6114729419970157	0.0702	0.46326752824038797	0.4539284180533011	0.1076	0.5241701828292369	1.100718492857833	-0.01275	0.7238498501135635	0.976297629891618	0.0702	0.7606534335679325	0.9693369247995522	0.1076
264	8.825287356321839	0.7100336142122345	0.625957619751104	0.0301	0.6566767427920136	0.5497613201834137	0.0301	0.9186373792272713	0.29141912331943104	0.129	1.1836832876548	0.05381777251667553	0.023	1.2696071552408863	-0.027780197659898222	0.2179	1.2258661188112256	-0.0579351651309766	0.1804	1.2279065554555553	0.027527536493352992	-0.0119	0.7816741855921697	0.6851671846623693	0.0301	1.010552325085984	0.4441082068280218	0.129	1.3068911992558914	0.1328152453503549	0.023	1.3952251919295713	0.05964600086214835	0.2179	1.4300369709856264	0.09554270780975316	0.1804	1.3427681983460187	0.06518165715237749	-0.0119	0.37754668066910324	1.0076846226867484	0.0008	0.24851830775495345	1.2129831113919263	0.0655	0.37843025410853653	1.0601787021887348	0.1076	0.2674908256301133	0.8540532620917128	-0.01275	0.346377548019144	0.6128230491064909	0.0702	0.4651983733947778	0.45631207068077534	0.1076	0.5272036216020591	1.103018818405479	-0.01275	0.7278920344286078	0.97423620910857	0.0702	0.7795841252095265	0.9582130710185335	0.1076
265	8.858716475095784	0.7128570753015706	0.6256505767457962	0.0301	0.6583329256517106	0.5496084297498143	0.0301	0.9198147304948695	0.2905003476758112	0.129	1.1827302069533565	0.05432139865967751	0.023	1.2689927764569184	-0.02866559751358216	0.2179	1.226103501626589	-0.05742137857290704	0.1804	1.2270328158350519	0.02706015520588617	-0.0119	0.7844817711339941	0.6847850736044081	0.0301	1.0144188313607279	0.43862409611754166	0.129	1.3096174705049608	0.12686541211710894	0.023	1.3990550451506172	0.05178224464041675	0.2179	1.4346054275266447	0.08900721946092982	0.1804	1.3420739664246133	0.05982243388861992	-0.0119	0.3793960880085175	1.0145146955372266	0.0008	0.24778471189869639	1.218220157313485	0.0655	0.3765028396772982	1.0682106120493728	0.1076	0.270671264307209	0.8579591751481171	-0.01275	0.3511057277313862	0.6166999143424537	0.0702	0.468008953706683	0.45819712715676464	0.1076	0.5340420306152689	1.1059685079378772	-0.01275	0.7356880561456368	0.9756336365271674	0.0702	0.8229503104935217	0.9256182245491488	0.1076
266	8.892145593869731	0.7147345937949995	0.6264940730646856	0.0301	0.6584018927695403	0.5508264956350474	0.0301	0.9204917477514827	0.2905874575106908	0.129	1.1816584478613747	0.05348837390047816	0.023	1.2690786791511255	-0.02873823339808082	0.2179	1.2270859331516806	-0.05678426767414516	0.1804	1.2270668731704322	0.025174908837891283	-0.0119	0.786854238812604	0.6852188685185785	0.0301	1.0175061641785315	0.4381641295898336	0.129	1.3137683202992683	0.12468069492830841	0.023	1.4062184324353468	0.0522629015844174	0.2179	1.4416475115770986	0.08872468355214498	0.1804	1.342332804667306	0.057280195148843666	-0.0119	0.38157098382466276	1.0210912946625257	0.0008	0.24791441892803256	1.2230929088660762	0.0655	0.37378885599615486	1.0779908813995596	0.1076	0.2731761375053688	0.8634120849108275	-0.01275	0.3563909870309531	0.6216618959553855	0.0702	0.47231552473246197	0.4595882575769037	0.1076	0.5413412239104504	1.109144233609886	-0.01275	0.7406217795194078	0.9805137651117464	0.0702	0.8680163221981373	0.8878836531761879	0.1076
